<svg width="128" height="128" viewBox="0 0 128 128" fill="none" xmlns="http://www.w3.org/2000/svg">
<rect width="128" height="128" rx="8.53333" fill="#3F51B5"/>
<mask id="mask0_7_46" style="mask-type:alpha" maskUnits="userSpaceOnUse" x="0" y="0" width="128" height="128">
<rect width="128" height="128" rx="8.53333" fill="#3F51B5"/>
</mask>
<g mask="url(#mask0_7_46)">
<path d="M0 128H128L0 0V128Z" fill="#3F51B5" style="mix-blend-mode:multiply"/>
</g>
<mask id="mask1_7_46" style="mask-type:alpha" maskUnits="userSpaceOnUse" x="18" y="18" width="92" height="92">
<path d="M18.6667 20.2667C18.6667 19.383 19.3831 18.6667 20.2667 18.6667H84.2668C98.1107 18.6667 109.333 29.8894 109.333 43.7333V107.733C109.333 108.617 108.617 109.333 107.733 109.333H42.1334C29.1731 109.333 18.6667 98.8269 18.6667 85.8667V20.2667Z" fill="white"/>
</mask>
<g mask="url(#mask1_7_46)">
<path d="M18.6667 20.2667C18.6667 19.383 19.3831 18.6667 20.2667 18.6667H84.2668C98.1107 18.6667 109.333 29.8894 109.333 43.7333V107.733C109.333 108.617 108.617 109.333 107.733 109.333H42.1334C29.1731 109.333 18.6667 98.8269 18.6667 85.8667V20.2667Z" fill="white"/>
<path d="M0 128H128L0 0V128Z" fill="#B2B9E1"/>
</g>
<path d="M36.5334 38.1333C36.5334 37.2497 37.2498 36.5333 38.1334 36.5333H82.4001C87.4075 36.5333 91.4668 40.5926 91.4668 45.6V54.1333C91.4668 54.7224 90.9892 55.2 90.4001 55.2H37.6001C37.011 55.2 36.5334 54.7224 36.5334 54.1333V38.1333Z" fill="#3F51B5"/>
<path d="M91.4668 89.8667C91.4668 90.7503 90.7504 91.4667 89.8668 91.4667H45.6001C40.5927 91.4667 36.5334 87.4074 36.5334 82.4V73.8667C36.5334 73.2776 37.011 72.8 37.6001 72.8H90.4001C90.9892 72.8 91.4668 73.2776 91.4668 73.8667V89.8667Z" fill="#3F51B5"/>
</svg>